<?xml version="1.0" encoding="UTF-8" standalone="no"?>
<!-- Created with Inkscape (http://www.inkscape.org/) -->

<svg
   width="48"
   height="48"
   viewBox="0 0 12 12"
   version="1.1"
   id="svg1"
   inkscape:version="1.3.2 (091e20e, 2023-11-25, custom)"
   sodipodi:docname="external-link.svg"
   xmlns:inkscape="http://www.inkscape.org/namespaces/inkscape"
   xmlns:sodipodi="http://sodipodi.sourceforge.net/DTD/sodipodi-0.dtd"
   xmlns="http://www.w3.org/2000/svg"
   xmlns:svg="http://www.w3.org/2000/svg">
  <sodipodi:namedview
     id="namedview1"
     pagecolor="#505050"
     bordercolor="#eeeeee"
     borderopacity="1"
     inkscape:showpageshadow="0"
     inkscape:pageopacity="0"
     inkscape:pagecheckerboard="0"
     inkscape:deskcolor="#505050"
     inkscape:document-units="px"
     showgrid="true"
     inkscape:zoom="16.388211"
     inkscape:cx="27.489272"
     inkscape:cy="21.9365"
     inkscape:window-width="1920"
     inkscape:window-height="1009"
     inkscape:window-x="1912"
     inkscape:window-y="-8"
     inkscape:window-maximized="1"
     inkscape:current-layer="g5">
    <inkscape:grid
       id="grid2"
       units="px"
       originx="0"
       originy="0"
       spacingx="1"
       spacingy="1"
       empcolor="#0099e5"
       empopacity="0.30196078"
       color="#0099e5"
       opacity="0.14901961"
       empspacing="5"
       dotted="false"
       gridanglex="30"
       gridanglez="30"
       visible="true" />
  </sodipodi:namedview>
  <defs
     id="defs1" />
  <g
     inkscape:label="Layer 1"
     inkscape:groupmode="layer"
     id="layer1">
    <path
       id="rect2"
       style="color:#000000;fill:#ffffff;stroke-linejoin:round;-inkscape-stroke:none"
       d="M 3.5 2 C 2.1236514 2 1 3.1236514 1 4.5 L 1 8.5 C 1 9.8763486 2.1236514 11 3.5 11 L 7.5 11 C 8.8763486 11 10 9.8763486 10 8.5 L 10 5 L 9 5 L 9 8.5 C 9 9.339647 8.339647 10 7.5 10 L 3.5 10 C 2.660353 10 2 9.339647 2 8.5 L 2 4.5 C 2 3.660353 2.660353 3 3.5 3 L 7 3 L 7 2 L 3.5 2 z " />
    <g
       id="g5">
      <path
         style="fill:none;fill-opacity:1;stroke:#ffffff;stroke-width:1;stroke-linejoin:round;stroke-dasharray:none;stroke-opacity:1;stroke-linecap:round"
         d="M 7,5 11,1"
         id="path4" />
      <path
         style="fill:none;fill-opacity:1;stroke:#ffffff;stroke-width:1;stroke-linejoin:round;stroke-dasharray:none;stroke-opacity:1;stroke-linecap:round"
         d="m 8,1 h 3 v 3"
         id="path5" />
    </g>
  </g>
</svg>
