<?xml version="1.0" encoding="UTF-8" standalone="no"?>
<!-- Created with Inkscape (http://www.inkscape.org/) -->

<svg
   width="340.51202"
   height="31.007999"
   viewBox="0 0 90.093806 8.2041999"
   version="1.1"
   id="svg1"
   xmlns="http://www.w3.org/2000/svg"
   xmlns:svg="http://www.w3.org/2000/svg">
  <defs
     id="defs1" />
  <g
     id="layer1"
     transform="translate(-0.27950448)">
    <path
       style="font-size:32px;font-family:'Noto Sans JP';-inkscape-font-specification:'Noto Sans JP';text-align:center;text-anchor:middle;white-space:pre;fill:#ffffff;stroke-width:0.264583;stroke-dasharray:none"
       d="M 0.27950448,6.7394666 V 0 H 1.0415045 v 4.5635333 h 0.03387 l 1.947333,-2.4214666 h 0.8636 l -1.532467,1.8542 1.735667,2.7431999 h -0.8382 L 1.9051075,4.5212 1.0415075,5.5287333 V 6.7394666 Z M 6.5448325,6.8495333 q -0.5588,0 -1.049867,-0.2794 Q 5.0038985,6.2822666 4.7075655,5.7488666 4.4196985,5.207 4.4196985,4.445 q 0,-0.7704668 0.287867,-1.3038668 0.296333,-0.5418666 0.7874,-0.8297333 0.491067,-0.2878666 1.049867,-0.2878666 0.423333,0 0.804333,0.1608666 0.389467,0.1608667 0.6858,0.4741335 0.296333,0.3132666 0.465667,0.7619999 0.169333,0.4487334 0.169333,1.0244667 0,0.762 -0.296333,1.3038666 -0.296334,0.5334 -0.778934,0.8212667 -0.4826,0.2794 -1.049866,0.2794 z m 0,-0.6434667 q 0.397933,0 0.694266,-0.2201333 Q 7.5438985,5.7658 7.7132325,5.3678667 7.8825655,4.9699333 7.8825655,4.445 q 0,-0.5334 -0.169333,-0.9313333 Q 7.5438985,3.1157333 7.2390985,2.8956 6.9427655,2.6754666 6.5448325,2.6754666 q -0.397934,0 -0.702734,0.2201333 Q 5.5457655,3.1157333 5.3764325,3.5136667 5.2155655,3.9116 5.2155655,4.445 q 0,0.5249333 0.160867,0.9228667 0.169333,0.3979333 0.465666,0.6180666 0.3048,0.2201333 0.702734,0.2201333 z m 3.3443402,0.5334 V 0 H 10.668105 V 1.8457333 L 10.634238,2.794 q 0.321735,-0.3217333 0.685801,-0.5418666 0.364067,-0.2286 0.8382,-0.2286 0.728134,0 1.0668,0.4656665 0.338667,0.4572001 0.338667,1.3377334 V 6.7394666 H 12.793239 V 3.9285333 q 0,-0.6519334 -0.211666,-0.9398 -0.2032,-0.2878666 -0.6604,-0.2878666 -0.3556,0 -0.635,0.1778 -0.2794,0.1778 -0.618068,0.5249333 v 3.3358666 z m 6.3415363,0.1100667 q -0.4826,0 -0.9398,-0.1778 -0.448734,-0.1862667 -0.770467,-0.4572 L 14.892975,5.6980666 Q 15.197775,5.9436 15.519509,6.096 q 0.321733,0.1524 0.7366,0.1524 0.4572,0 0.677333,-0.2032 0.2286,-0.2116667 0.2286,-0.5164667 0,-0.2370666 -0.160867,-0.3894666 Q 16.848775,4.9784 16.603242,4.8683333 16.366175,4.7498 16.112175,4.6566667 q -0.321733,-0.127 -0.635,-0.2794 -0.3048,-0.1608667 -0.508,-0.4064 -0.194733,-0.254 -0.194733,-0.6434667 0,-0.3725333 0.186267,-0.6604 0.186266,-0.2963333 0.541866,-0.4656666 0.3556,-0.1778 0.855134,-0.1778 0.423333,0 0.7874,0.1524 0.372533,0.1524 0.635,0.3725333 L 17.407575,3.0310666 Q 17.170509,2.8617332 16.916509,2.7432 16.670975,2.6246667 16.366175,2.6246667 q -0.440266,0 -0.651933,0.2031999 -0.2032,0.1947334 -0.2032,0.4656666 0,0.2116667 0.135467,0.3556 0.143933,0.1439335 0.372533,0.2455335 0.2286,0.093133 0.4826,0.1947333 0.254,0.093133 0.499533,0.2032 0.254,0.1100667 0.448734,0.2624667 0.2032,0.1524 0.321733,0.381 0.127,0.2201333 0.127,0.5503333 0,0.3725333 -0.194733,0.6858 -0.186267,0.3132666 -0.5588,0.4995333 -0.364067,0.1778 -0.9144,0.1778 z m 4.106337,0 q -0.728134,0 -1.075267,-0.4572 Q 18.923112,5.9351333 18.923112,5.0546 V 2.1420667 h 0.778934 v 2.8194 q 0,0.6349999 0.2032,0.9313333 0.2032,0.2878666 0.6604,0.2878666 0.3556,0 0.635,-0.1862666 0.2794,-0.1862667 0.6096,-0.5926667 V 2.1420667 h 0.770467 V 6.7394666 H 21.937246 L 21.877979,6.0198 h -0.0254 q -0.321733,0.3725333 -0.6858,0.6011333 -0.3556,0.2286 -0.829733,0.2286 z M 24.130115,6.7394666 V 0 h 0.762 v 4.5635333 h 0.03387 l 1.947333,-2.4214666 h 0.8636 l -1.532466,1.8542 1.735666,2.7431999 h -0.8382 l -1.3462,-2.2182666 -0.8636,1.0075333 v 1.2107333 z m 6.341528,0.1100667 q -0.618066,0 -1.1176,-0.2878667 Q 28.85451,6.2738 28.558177,5.7404 28.27031,5.1985333 28.27031,4.445 q 0,-0.5672667 0.169333,-1.0075334 0.169334,-0.4487334 0.4572,-0.762 0.296334,-0.3217333 0.668867,-0.4826 0.372533,-0.1693333 0.762,-0.1693333 0.592667,0 0.999067,0.2624666 0.4064,0.2624667 0.618066,0.7535333 0.220134,0.4826 0.220134,1.143 0,0.127 -0.0085,0.2370667 -0.0085,0.1100667 -0.0254,0.2032 h -3.0988 q 0.0254,0.4910667 0.220133,0.8551333 0.2032,0.3556001 0.5334,0.5588001 0.3302,0.1947333 0.770467,0.1947333 0.338667,0 0.6096,-0.093133 0.2794,-0.1016 0.541867,-0.2709333 l 0.270933,0.5164666 q -0.296333,0.1947334 -0.668867,0.3302 -0.372533,0.1354667 -0.8382,0.1354667 z m -1.4478,-2.7770666 h 2.4638 q 0,-0.6942667 -0.3048,-1.0583334 -0.296333,-0.3725334 -0.8382,-0.3725334 -0.321733,0 -0.6096,0.1693333 -0.2794,0.1693335 -0.474133,0.4826 Q 29.074643,3.6068 29.023843,4.0724667 Z M 36.322118,8.2042 q -0.6858,0 -1.2954,-0.220133 Q 34.425584,7.7724 33.968384,7.3406 q -0.4572,-0.4318 -0.719666,-1.0583334 -0.254,-0.635 -0.254,-1.4647333 0,-0.9567333 0.313266,-1.7272001 0.321734,-0.7704666 0.872067,-1.3207999 0.550333,-0.5503333 1.261533,-0.8466666 0.719667,-0.2963333 1.507067,-0.2963333 0.956733,0 1.651,0.3979333 0.694267,0.3894667 1.0668,1.0922 0.381,0.7027333 0.381,1.6425333 0,0.6180667 -0.169333,1.0922 -0.169334,0.4656667 -0.448734,0.7874 -0.2794,0.3132666 -0.618066,0.4741333 -0.3302,0.1608667 -0.651934,0.1608667 -0.381,0 -0.6604,-0.1778 -0.270933,-0.1778 -0.313266,-0.5418667 h -0.0254 q -0.2286,0.2709333 -0.5334,0.4656667 -0.3048,0.1862666 -0.618067,0.1862666 -0.474133,0 -0.8128,-0.3471333 -0.3302,-0.3556 -0.3302,-0.9990666 0,-0.3725334 0.127,-0.7535334 Q 35.128318,3.7168667 35.365384,3.3866666 35.602451,3.0564667 35.941118,2.8617332 36.279784,2.667 36.694651,2.667 q 0.237067,0 0.4318,0.1185333 0.194733,0.1100667 0.321733,0.3471334 h 0.01693 L 37.575184,2.7432 h 0.508 l -0.372533,1.8880667 q -0.270933,1.1175999 0.516467,1.1175999 0.3048,0 0.592666,-0.2286 0.296334,-0.2370666 0.491067,-0.6773333 0.194733,-0.4402666 0.194733,-1.0498666 0,-0.5757334 -0.169333,-1.0583333 -0.169333,-0.4826 -0.499533,-0.8382 -0.3302,-0.3556 -0.821267,-0.5503334 -0.491067,-0.2032 -1.134533,-0.2032 -0.635,0 -1.227667,0.2624667 -0.592667,0.254 -1.0668,0.7366 -0.465667,0.4741332 -0.745067,1.1514665 -0.2794,0.6688668 -0.2794,1.4986001 0,0.6942667 0.211667,1.2361333 0.211667,0.5334 0.592667,0.8974667 0.381,0.3725333 0.897466,0.5672667 0.516467,0.1947333 1.1176,0.1947333 0.4318,0 0.821267,-0.127 Q 37.600584,7.4422 37.913851,7.2644 l 0.211667,0.4572 Q 37.719118,7.967133 37.270384,8.085667 36.821651,8.2042 36.322118,8.2042 Z M 36.161251,5.6726666 q 0.194733,0 0.414867,-0.127 Q 36.796251,5.4102 37.041784,5.1054 l 0.262467,-1.4986 q -0.127,-0.2201333 -0.270933,-0.3048 -0.143934,-0.093133 -0.338667,-0.093133 -0.270933,0 -0.499533,0.1524 -0.2286,0.1439332 -0.389467,0.3894665 -0.1524,0.2370668 -0.237067,0.5249335 -0.0762,0.2794 -0.0762,0.5418666 0,0.4572 0.186267,0.6604 0.194733,0.1947333 0.4826,0.194733 z m 5.147725,1.0668 V 0 h 0.762 v 4.5635333 h 0.03387 l 1.947333,-2.4214666 h 0.8636 l -1.532466,1.8542 1.735666,2.7431999 h -0.8382 L 42.934576,4.5212 l -0.8636,1.0075333 v 1.2107333 z m 6.265328,0.1100667 q -0.5588,0 -1.049866,-0.2794 Q 46.033371,6.2822666 45.737038,5.7488666 45.449171,5.207 45.449171,4.445 q 0,-0.7704668 0.287867,-1.3038668 0.296333,-0.5418666 0.7874,-0.8297332 0.491066,-0.2878666 1.049866,-0.2878666 0.423334,0 0.804334,0.1608666 0.389466,0.1608667 0.6858,0.4741334 0.296333,0.3132666 0.465666,0.7619999 0.169334,0.4487334 0.169334,1.0244667 0,0.762 -0.296334,1.3038666 -0.296333,0.5334 -0.778933,0.8212667 -0.4826,0.2794 -1.049867,0.2794 z m 0,-0.6434667 q 0.397934,0 0.694267,-0.2201333 Q 48.573371,5.7658 48.742704,5.3678667 48.912038,4.9699333 48.912038,4.445 q 0,-0.5334 -0.169334,-0.9313333 Q 48.573371,3.1157333 48.268571,2.8956 47.972238,2.6754666 47.574304,2.6754666 q -0.397933,0 -0.702733,0.2201333 Q 46.575238,3.1157333 46.405904,3.5136667 46.245038,3.9116 46.245038,4.445 q 0,0.5249333 0.160866,0.9228667 0.169334,0.3979333 0.465667,0.6180666 0.3048,0.2201333 0.702733,0.2201333 z m 3.344342,0.5334 V 0 h 0.778933 V 1.8457333 L 51.663712,2.794 q 0.321734,-0.3217333 0.6858,-0.5418666 0.364067,-0.2286 0.8382,-0.2286 0.728134,0 1.0668,0.4656665 0.338667,0.4572001 0.338667,1.3377334 V 6.7394666 H 53.822712 V 3.9285333 q 0,-0.6519334 -0.211666,-0.9398 -0.2032,-0.2878666 -0.6604,-0.2878666 -0.3556,0 -0.635,0.1778 -0.2794,0.1778 -0.618067,0.5249333 v 3.3358666 z m 5.867402,0 -1.278467,-4.5973999 h 0.7874 l 0.6858,2.6585333 q 0.0762,0.3302 0.135467,0.6434666 0.06773,0.3132667 0.135467,0.635 h 0.04233 q 0.0762,-0.3217333 0.143933,-0.635 Q 57.514181,5.1308 57.598848,4.8006 l 0.719667,-2.6585334 h 0.753533 L 59.791715,4.8006 q 0.08467,0.3302 0.160866,0.6434666 0.08467,0.3132667 0.160867,0.635 h 0.04233 q 0.06773,-0.3217333 0.135467,-0.635 Q 60.358981,5.1308 60.435181,4.8006 l 0.668867,-2.6585334 h 0.745067 l -1.2446,4.5974 h -0.9398 l -0.6604,-2.4807333 Q 58.919648,3.937 58.843448,3.6152666 q -0.0762,-0.3301999 -0.1524,-0.6773334 h -0.04233 q -0.0762,0.3471334 -0.1524,0.6773334 -0.06773,0.3302001 -0.160867,0.6604001 l -0.651933,2.4637999 z m 7.865533,0.1100667 q -0.618066,0 -1.1176,-0.2878667 Q 63.034448,6.2738 62.738115,5.7404 62.450248,5.1985333 62.450248,4.445 q 0,-0.5672667 0.169333,-1.0075334 0.169334,-0.4487334 0.4572,-0.762 0.296334,-0.3217333 0.668867,-0.4826 0.372533,-0.1693333 0.762,-0.1693333 0.592667,0 0.999067,0.2624666 0.4064,0.2624667 0.618066,0.7535333 0.220134,0.4826 0.220134,1.143 0,0.127 -0.0085,0.2370667 -0.0085,0.1100667 -0.0254,0.2032 h -3.0988 q 0.0254,0.4910667 0.220133,0.8551333 0.2032,0.3556001 0.5334,0.5588001 0.3302,0.1947333 0.770467,0.1947333 0.338667,0 0.6096,-0.093133 0.2794,-0.1016 0.541867,-0.2709333 l 0.270933,0.5164666 q -0.296333,0.1947334 -0.668867,0.3302 -0.372533,0.1354667 -0.8382,0.1354667 z m -1.4478,-2.7770666 h 2.4638 q 0,-0.6942667 -0.3048,-1.0583334 -0.296333,-0.3725334 -0.8382,-0.3725334 -0.321733,0 -0.6096,0.1693333 -0.2794,0.1693335 -0.474133,0.4826 Q 63.254581,3.6068 63.203781,4.0724667 Z m 6.299208,2.7770666 q -0.313266,0 -0.6604,-0.1524 -0.347133,-0.1524 -0.643466,-0.4318 h -0.03387 l -0.06773,0.4741333 H 67.479456 V 0 h 0.778933 V 1.8457333 L 68.224523,2.667 q 0.313266,-0.2709333 0.6858,-0.4572001 0.372533,-0.1862665 0.762,-0.1862665 0.592666,0 0.999066,0.2963332 0.4064,0.2878668 0.618067,0.8128001 0.211667,0.5249332 0.211667,1.2361333 0,0.7789333 -0.287867,1.3377333 -0.2794,0.5588 -0.7366,0.8551333 -0.448733,0.2878667 -0.973667,0.2878667 z M 69.375989,6.1976 q 0.381,0 0.677334,-0.2116667 0.3048,-0.2201333 0.474133,-0.6265334 0.169333,-0.4148667 0.169333,-0.9821333 0,-0.508 -0.127,-0.889 -0.118533,-0.3894667 -0.381,-0.6011334 -0.262466,-0.2116666 -0.7112,-0.2116666 -0.287866,0 -0.592666,0.1608666 -0.3048,0.1608667 -0.626534,0.4656668 v 2.4214666 q 0.296334,0.2624667 0.592667,0.3725334 0.3048,0.1016 0.524933,0.1016 z m 3.615267,0.6519333 q -0.2286,0 -0.397933,-0.1608667 -0.160867,-0.1693333 -0.160867,-0.4233333 0,-0.2709333 0.160867,-0.4318 0.169333,-0.1608668 0.397933,-0.1608668 0.2286,0 0.389467,0.1608668 0.169333,0.1608667 0.169333,0.4318 0,0.254 -0.169333,0.4233333 -0.160867,0.1608667 -0.389467,0.1608667 z m 3.632192,0 q -0.6096,0 -1.100667,-0.2794001 -0.4826,-0.2878667 -0.770466,-0.8212667 -0.2794,-0.5418666 -0.2794,-1.3038666 0,-0.7704667 0.3048,-1.3038667 0.3048,-0.5418666 0.8128,-0.8297333 0.508,-0.2878666 1.0922,-0.2878666 0.448733,0 0.770466,0.1608666 0.3302,0.1608667 0.567267,0.381 l -0.389467,0.508 Q 77.436248,2.8956 77.207648,2.7855333 76.987515,2.6754666 76.716581,2.6754666 q -0.414866,0 -0.745066,0.2201333 -0.3302,0.2201333 -0.516467,0.6180667 Q 75.268781,3.9116 75.268781,4.445 q 0,0.5249333 0.1778,0.9228667 0.186267,0.3979333 0.499534,0.6180666 0.321733,0.2201333 0.745066,0.2201333 0.321734,0 0.592667,-0.127 0.270933,-0.1354666 0.491067,-0.3302 L 78.113581,6.2738 q -0.313266,0.2709333 -0.694266,0.4233333 -0.381,0.1524 -0.795867,0.1524 z m 4.064,0 q -0.5588,0 -1.049867,-0.2794001 Q 79.146515,6.2822666 78.850181,5.7488666 78.562315,5.207 78.562315,4.445 q 0,-0.7704668 0.287866,-1.3038668 0.296334,-0.5418666 0.7874,-0.8297333 0.491067,-0.2878666 1.049867,-0.2878666 0.423333,0 0.804333,0.1608666 0.389467,0.1608667 0.6858,0.4741335 0.296333,0.3132666 0.465667,0.7619999 0.169333,0.4487334 0.169333,1.0244667 0,0.762 -0.296333,1.3038666 -0.296334,0.5334 -0.778933,0.8212667 -0.4826,0.2794 -1.049867,0.2794 z m 0,-0.6434667 q 0.397933,0 0.694267,-0.2201333 0.3048,-0.2201333 0.474133,-0.6180666 0.169333,-0.3979335 0.169333,-0.9228668 0,-0.5334 -0.169333,-0.9313333 Q 81.686515,3.1157333 81.381715,2.8956 81.085381,2.6754666 80.687448,2.6754666 q -0.397933,0 -0.702733,0.2201333 Q 79.688381,3.1157333 79.519048,3.5136667 79.358181,3.9116 79.358181,4.445 q 0,0.5249333 0.160867,0.9228667 0.169333,0.3979333 0.465667,0.6180666 0.3048,0.2201333 0.702733,0.2201333 z m 3.344338,0.5334 V 2.1420667 h 0.635 l 0.0762,0.6688666 h 0.01693 q 0.3048,-0.3301999 0.660396,-0.5587999 0.36407,-0.2286 0.77047,-0.2286 0.5334,0 0.82973,0.2370666 0.29634,0.2370667 0.44027,0.6434667 0.36407,-0.3894667 0.72813,-0.635 0.37254,-0.2455333 0.79587,-0.2455333 0.70273,0 1.0414,0.4656666 0.34713,0.4572 0.34713,1.3377333 v 2.9125333 h -0.77046 V 3.9285333 q 0,-0.6519334 -0.21167,-0.9398 -0.2032,-0.2878666 -0.64346,-0.2878666 -0.26247,0 -0.55034,0.1778 -0.2794,0.1693332 -0.6096,0.5249333 v 3.3358666 h -0.77046 V 3.9285333 q 0,-0.6519334 -0.21167,-0.9398 -0.2032,-0.2878666 -0.64347,-0.2878666 -0.26246,0 -0.55033,0.1778 Q 85.123986,3.0479999 84.81072,3.4036 v 3.3358666 z"
       id="text3"
       aria-label="kohsuke@kohweb.com" />
  </g>
</svg>
